<?xml version="1.0" standalone="no"?>
<!DOCTYPE svg PUBLIC "-//W3C//DTD SVG 20010904//EN"
 "http://www.w3.org/TR/2001/REC-SVG-20010904/DTD/svg10.dtd">
<svg version="1.0" xmlns="http://www.w3.org/2000/svg"
 width="200.000000pt" height="200.000000pt" viewBox="0 0 200.000000 200.000000"
 preserveAspectRatio="xMidYMid meet">
<metadata>
Created by potrace 1.11, written by Peter Selinger 2001-2013
</metadata>
<g transform="translate(0.000000,200.000000) scale(0.100000,-0.100000)"
fill="#000000" stroke="none">
<path d="M7 1993 c-4 -3 -7 -453 -7 -1000 l0 -993 998 2 997 3 3 998 2 997
-993 0 c-547 0 -997 -3 -1000 -7z m326 -191 c172 -104 471 -285 665 -402 194
-117 350 -215 348 -217 -2 -2 -68 3 -146 12 -78 9 -144 14 -147 12 -2 -3 145
-127 327 -276 182 -149 325 -271 317 -271 -8 0 -88 11 -177 25 -89 14 -167 25
-172 25 -11 0 53 -71 405 -445 130 -137 234 -251 233 -253 -4 -3 -1327 796
-1341 810 -7 6 -2 8 15 4 14 -3 75 -10 135 -16 61 -6 121 -13 133 -16 36 -7
23 6 -121 123 -211 172 -517 424 -517 427 0 2 81 -9 180 -24 99 -14 180 -24
180 -21 0 3 -94 106 -208 227 -114 122 -258 276 -321 343 -62 66 -110 121
-107 121 4 0 147 -85 319 -188z"/>
</g>
</svg>
